<mxfile host="app.diagrams.net" modified="2024-07-01T23:28:49.220Z" agent="Mozilla/5.0 (Windows NT 10.0; Win64; x64) AppleWebKit/537.36 (KHTML, like Gecko) Chrome/126.0.0.0 Safari/537.36" etag="QjJpyHIcm7zxLsN0oHGV" version="24.6.4" type="device">
  <diagram name="第 1 页" id="OAv1ezwvdk0a0M2xHN7i">
    <mxGraphModel dx="1434" dy="738" grid="1" gridSize="10" guides="1" tooltips="1" connect="1" arrows="1" fold="1" page="1" pageScale="1" pageWidth="827" pageHeight="1169" math="0" shadow="0">
      <root>
        <mxCell id="0" />
        <mxCell id="1" parent="0" />
        <mxCell id="tKSQ1cI_gwKa7SrHc6mz-1" value="" style="rounded=1;whiteSpace=wrap;html=1;fillColor=#dae8fc;strokeColor=#6C8EBF;" vertex="1" parent="1">
          <mxGeometry x="70" y="170" width="580" height="160" as="geometry" />
        </mxCell>
        <mxCell id="EiA61ZdqpQQiyCyowNI5-1" value="" style="group" parent="1" vertex="1" connectable="0">
          <mxGeometry x="171" y="210" width="380" height="30" as="geometry" />
        </mxCell>
        <mxCell id="cKbTaB6IUz4bR88QMU-x-11" value="&lt;p style=&quot;text-align: start; margin: 0in; font-size: 14px;&quot;&gt;&lt;font face=&quot;Helvetica&quot; style=&quot;font-size: 14px;&quot;&gt;agg_linear_trend&lt;/font&gt;&lt;span style=&quot;background-color: initial; font-size: 14px;&quot;&gt;__attr_&quot;intercept &amp;gt; 0.4&lt;/span&gt;&lt;/p&gt;" style="rounded=1;whiteSpace=wrap;html=1;fontSize=14;fontStyle=1" parent="EiA61ZdqpQQiyCyowNI5-1" vertex="1">
          <mxGeometry x="113.85" width="266.15" height="30" as="geometry" />
        </mxCell>
        <mxCell id="cKbTaB6IUz4bR88QMU-x-36" value="&lt;p style=&quot;text-align: start; margin: 0in; font-size: 14px;&quot;&gt;&lt;font style=&quot;font-size: 14px;&quot; face=&quot;Helvetica&quot;&gt;number_crossing &amp;lt; 6.0&lt;/font&gt;&lt;/p&gt;" style="rounded=1;whiteSpace=wrap;html=1;fontSize=14;fontStyle=1" parent="EiA61ZdqpQQiyCyowNI5-1" vertex="1">
          <mxGeometry x="-80" width="155.9" height="30" as="geometry" />
        </mxCell>
        <mxCell id="cKbTaB6IUz4bR88QMU-x-37" value="" style="shape=cross;whiteSpace=wrap;html=1;fillColor=#ffe6cc;strokeColor=#d79b00;" parent="EiA61ZdqpQQiyCyowNI5-1" vertex="1">
          <mxGeometry x="85.17948717948718" y="5" width="18.974358974358974" height="20" as="geometry" />
        </mxCell>
        <mxCell id="EiA61ZdqpQQiyCyowNI5-2" value="" style="shape=flexArrow;endArrow=classic;html=1;rounded=0;endWidth=8;endSize=3.5566666666666666;width=4.666666666666667;fillColor=#ffe6cc;strokeColor=#d79b00;" parent="EiA61ZdqpQQiyCyowNI5-1" edge="1">
          <mxGeometry width="50" height="50" relative="1" as="geometry">
            <mxPoint x="386.6923076923077" y="14.829999999999984" as="sourcePoint" />
            <mxPoint x="405.66666666666663" y="14.829999999999984" as="targetPoint" />
          </mxGeometry>
        </mxCell>
        <mxCell id="tKSQ1cI_gwKa7SrHc6mz-7" value="" style="shape=flexArrow;endArrow=classic;html=1;rounded=0;fillColor=#f8cecc;strokeColor=#b85450;" edge="1" parent="1">
          <mxGeometry width="50" height="50" relative="1" as="geometry">
            <mxPoint x="360" y="247" as="sourcePoint" />
            <mxPoint x="360" y="277" as="targetPoint" />
          </mxGeometry>
        </mxCell>
        <mxCell id="cKbTaB6IUz4bR88QMU-x-38" value="Class 3" style="ellipse;whiteSpace=wrap;html=1;fontSize=14;fontStyle=1" parent="1" vertex="1">
          <mxGeometry x="581" y="210" width="60" height="30" as="geometry" />
        </mxCell>
        <mxCell id="tKSQ1cI_gwKa7SrHc6mz-11" value="&lt;span style=&quot;font-size: 13px; font-weight: 700;&quot;&gt;Classification rules&lt;/span&gt;" style="rounded=0;whiteSpace=wrap;html=1;" vertex="1" parent="1">
          <mxGeometry x="70" y="170" width="130" height="30" as="geometry" />
        </mxCell>
        <mxCell id="tKSQ1cI_gwKa7SrHc6mz-12" value="If there are few changes in the direction and a big decreasing trend, then class 3." style="rounded=1;whiteSpace=wrap;html=1;fontSize=14;fontStyle=1" vertex="1" parent="1">
          <mxGeometry x="91" y="282" width="550" height="30" as="geometry" />
        </mxCell>
        <mxCell id="tKSQ1cI_gwKa7SrHc6mz-13" value="" style="rounded=1;whiteSpace=wrap;html=1;fillColor=#fff2cc;strokeColor=#d6b656;" vertex="1" parent="1">
          <mxGeometry x="70" y="360" width="580" height="160" as="geometry" />
        </mxCell>
        <mxCell id="tKSQ1cI_gwKa7SrHc6mz-14" value="&lt;span style=&quot;font-size: 13px; font-weight: 700;&quot;&gt;Test data sample&lt;/span&gt;" style="rounded=0;whiteSpace=wrap;html=1;" vertex="1" parent="1">
          <mxGeometry x="70" y="360" width="130" height="30" as="geometry" />
        </mxCell>
        <mxCell id="tKSQ1cI_gwKa7SrHc6mz-15" value="" style="group" vertex="1" connectable="0" parent="1">
          <mxGeometry x="81" y="400" width="540" height="30" as="geometry" />
        </mxCell>
        <mxCell id="tKSQ1cI_gwKa7SrHc6mz-16" value="&lt;p style=&quot;text-align: start; margin: 0in; font-size: 14px;&quot;&gt;&lt;font face=&quot;Helvetica&quot; style=&quot;font-size: 14px;&quot;&gt;agg_linear_trend&lt;/font&gt;&lt;span style=&quot;background-color: initial; font-size: 14px;&quot;&gt;__attr_&quot;intercept = 0.23&lt;/span&gt;&lt;/p&gt;" style="rounded=1;whiteSpace=wrap;html=1;fontSize=14;fontStyle=1" vertex="1" parent="tKSQ1cI_gwKa7SrHc6mz-15">
          <mxGeometry x="240" width="300" height="30" as="geometry" />
        </mxCell>
        <mxCell id="tKSQ1cI_gwKa7SrHc6mz-17" value="&lt;p style=&quot;text-align: start; margin: 0in; font-size: 14px;&quot;&gt;&lt;font style=&quot;font-size: 14px;&quot; face=&quot;Helvetica&quot;&gt;number_crossing =&lt;/font&gt;&lt;span style=&quot;background-color: initial; font-size: 14px;&quot;&gt;&amp;nbsp;9.0&lt;/span&gt;&lt;/p&gt;" style="rounded=1;whiteSpace=wrap;html=1;fontSize=14;fontStyle=1" vertex="1" parent="tKSQ1cI_gwKa7SrHc6mz-15">
          <mxGeometry width="180" height="30" as="geometry" />
        </mxCell>
        <mxCell id="tKSQ1cI_gwKa7SrHc6mz-18" value="" style="shape=cross;whiteSpace=wrap;html=1;fillColor=#ffe6cc;strokeColor=#d79b00;" vertex="1" parent="tKSQ1cI_gwKa7SrHc6mz-15">
          <mxGeometry x="200" y="5" width="20" height="20" as="geometry" />
        </mxCell>
        <mxCell id="tKSQ1cI_gwKa7SrHc6mz-20" value="" style="shape=flexArrow;endArrow=classic;html=1;rounded=0;fillColor=#f8cecc;strokeColor=#b85450;" edge="1" parent="1">
          <mxGeometry width="50" height="50" relative="1" as="geometry">
            <mxPoint x="360" y="437" as="sourcePoint" />
            <mxPoint x="360" y="467" as="targetPoint" />
          </mxGeometry>
        </mxCell>
        <mxCell id="tKSQ1cI_gwKa7SrHc6mz-21" value="There are a lot&lt;span style=&quot;background-color: initial; font-size: 14px;&quot;&gt;&amp;nbsp;of changes in the direction and a slight&lt;/span&gt;&lt;span style=&quot;background-color: initial; font-size: 14px;&quot;&gt;&amp;nbsp;decreasing trend.&lt;/span&gt;" style="rounded=1;whiteSpace=wrap;html=1;fontSize=14;fontStyle=1" vertex="1" parent="1">
          <mxGeometry x="81" y="471" width="540" height="30" as="geometry" />
        </mxCell>
        <mxCell id="tKSQ1cI_gwKa7SrHc6mz-22" value="" style="endArrow=none;dashed=1;html=1;rounded=0;strokeWidth=3;" edge="1" parent="1">
          <mxGeometry width="50" height="50" relative="1" as="geometry">
            <mxPoint x="70" y="345" as="sourcePoint" />
            <mxPoint x="650" y="345" as="targetPoint" />
          </mxGeometry>
        </mxCell>
      </root>
    </mxGraphModel>
  </diagram>
</mxfile>
